<svg id="JMCS_-_LOGO_AIDEN" data-name="JMCS - LOGO AIDEN" xmlns="http://www.w3.org/2000/svg" xmlns:xlink="http://www.w3.org/1999/xlink" viewBox="0 0 532.46 500"><defs><style>.cls-1{fill:url(#Degradado_sin_nombre_39);}</style><linearGradient id="Degradado_sin_nombre_39" x1="985.72" y1="549.99" x2="987.35" y2="549.99" gradientTransform="matrix(-185.71, 227.97, -223.83, -161.42, 306604.06, -135938.41)" gradientUnits="userSpaceOnUse"><stop offset="0" stop-color="#d93b32"/><stop offset="0.02" stop-color="#c83642"/><stop offset="0.09" stop-color="#972872"/><stop offset="0.16" stop-color="#6d1c9c"/><stop offset="0.23" stop-color="#4b12be"/><stop offset="0.3" stop-color="#300ad8"/><stop offset="0.37" stop-color="#1d04ea"/><stop offset="0.45" stop-color="#1201f5"/><stop offset="0.53" stop-color="#0e00f9"/><stop offset="1" stop-color="#8beadc"/></linearGradient></defs><g id="LOGO_PRINCIPAL_V" data-name="LOGO PRINCIPAL V"><g id="NOMBRE_PRINCIPAL" data-name="NOMBRE PRINCIPAL"><path id="A" d="M132.48,430,79.32,337.27A2.73,2.73,0,0,0,77,336.06a3,3,0,0,0-2.52,1.21L21.27,430c-.5.94,0,1.61,1.35,1.61H39.27a3.63,3.63,0,0,0,3-1.61L47,421.79a5.86,5.86,0,0,1,1-1.26l11.24-19.78a4,4,0,0,1,.35-.9l15.31-26.38c.67-1.07,1.35-1.61,2-1.61s1.35.54,2,1.61l9.91,17.26,5.23,9.12c.09.16.13.3.2.45L106,420.78a5.1,5.1,0,0,1,.79,1l4.71,8.21a3.71,3.71,0,0,0,3.2,1.61h16.48C132.48,431.61,133,430.94,132.48,430Z"/><path id="I" d="M154.34,337.4h15.82c1.34,0,2.18.68,2.18,1.75v90.71c0,1.08-.84,1.75-2.18,1.75H154.34c-1.34,0-2.18-.67-2.18-1.75V339.15C152.16,338.08,153,337.4,154.34,337.4Z"/><path id="D" d="M200.1,337.4H228c4.54,0,7.74,0,9.59.14,36.84,2,55.35,24.49,55.35,47s-18.51,44.28-55.35,47c-1.85.13-5.05.13-9.59.13H200.1c-1.35,0-2.19-.67-2.19-1.75V339.15C197.91,338.08,198.75,337.4,200.1,337.4Zm18,75.24c0,2.28,1.85,3.77,4.71,3.77h4.38c4.87,0,7.74,0,9.59-.14,48.28-3.77,46.93-63.79-4.88-63.79h-9.09c-2.86,0-4.71,1.48-4.71,3.77Z"/><path id="E" d="M315.84,339.15c0-1.07.84-1.75,2.19-1.75h71.83c1.35,0,2.19.68,2.19,1.75v11.58c0,1.07-.84,1.75-2.19,1.75H340.74c-2.86,0-4.71,1.48-4.71,3.77V373.2c0,2.29,1.85,3.77,4.71,3.77h37c1.35,0,2.19.67,2.19,1.75V390.3c0,1.07-.84,1.75-2.19,1.75h-37c-2.86,0-4.71,1.48-4.71,3.76v17c0,2.29,1.85,3.77,4.71,3.77h49.12c1.35,0,2.19.67,2.19,1.75v11.57c0,1.08-.84,1.75-2.19,1.75H318c-1.35,0-2.19-.67-2.19-1.75Z"/><path id="N" d="M508.13,337.4H478.89c-1,0-1.88,1.63-1.88,3.64v7.6c0,2,.84,3.64,1.88,3.64h11.24v40.57c0,1.35-.5,2-1.18,2a3.13,3.13,0,0,1-2-.94L422.5,338.61A6.41,6.41,0,0,0,419,337.4h-2.52c-1.35,0-2.19.68-2.19,1.75v90.71c0,1.08.84,1.75,2.19,1.75h15.82c1.34,0,2.18-.67,2.18-1.75v-54c0-1.34.51-2,1.18-2a2.82,2.82,0,0,1,2,.94l64.43,55.45a5.73,5.73,0,0,0,3.71,1.34h2.35c1.35,0,2.19-.67,2.19-1.75V339.15C510.32,338.08,509.48,337.4,508.13,337.4Z"/></g><path id="ICONO_PRINCIPAL" data-name="ICONO PRINCIPAL" class="cls-1" d="M21.71,204.83c7.12-26.21,30.16-45.66,58.81-49.55,19.38-2.64,52,0,97.63,27.13-2.55,3.22-5.08,6.43-7.68,9.73-28.84-18.15-53.08-25.62-73.92-22.79-39.33,5.34-43.19,42-38.52,63.93,2.09,9.81,11.37,41.54,43.36,37.19C167.57,261,213.94,88.75,357.77,69.22c22.23-3,47.09-1.57,62.71,4,53.65,19.21,84.38,62.58,88.86,101.26,6.24,58-37.47,108.25-101.75,117C360.76,297.85,300.65,277.87,228.8,232c2.93-3.19,5.86-6.47,8.68-9.75,34.17,22.09,96.32,53,142.29,55.54,16,.81,30.63-2.18,42.45-8.6,45.65-24.7,44.9-101.12,12.32-144.08-16-21-37.84-31.9-63.2-31.46l-1.09.08C320.49,97.69,289.66,137.22,254,183c-36.95,47.35-78.85,101-143.75,109.85a86.42,86.42,0,0,1-42-4.25C32.34,275.29,12.33,239.3,21.71,204.83Z"/></g></svg>